<svg xmlns="http://www.w3.org/2000/svg" viewBox="0 0 480 512">
  <path d="M186 329c0 21-11 55-37 55s-36-34-36-55 11-55 36-55 37 34 37 55zm294-51c0 32-3 66-17 95-38 77-143 75-217 75-76 0-186 3-226-75-14-29-20-63-20-95 0-42 14-81 42-113-6-16-8-33-8-49 0-22 5-32 14-52 46 0 75 9 109 36a383 383 0 0 1 169-1c34-26 63-35 108-35 10 20 15 30 15 52 0 16-3 33-8 48 28 32 39 72 39 114zm-64 51c0-44-27-83-74-83-19 0-37 3-56 6a294 294 0 0 1-90 0c-19-3-37-6-56-6-47 0-73 39-73 83 0 87 80 101 150 101h48c70 0 151-13 151-101zm-83-55c-26 0-37 34-37 55s11 55 37 55 37-34 37-55-11-55-37-55z"/>
</svg>