<svg xmlns="http://www.w3.org/2000/svg" viewBox="0 0 640 512">
  <path d="M64 96c0-35 29-64 64-64h384c35 0 64 29 64 64v256h-64V96H128v256H64V96zM0 403c0-10 9-19 19-19h602c10 0 19 9 19 19 0 43-34 77-77 77H77c-43 0-77-34-77-77zm200-275h16c22 0 40 18 40 40v32c0 22-18 40-40 40h-16c-22 0-40-18-40-40v-32c0-22 18-40 40-40zm-8 40v32c0 4 4 8 8 8h16c4 0 8-4 8-8v-32c0-4-4-8-8-8h-16c-4 0-8 4-8 8zm112-40h16c9 0 16 7 16 16v80c0 9-7 16-16 16s-16-7-16-16v-64c-9 0-16-7-16-16s7-16 16-16zm80 40c0-22 18-40 40-40h16c22 0 40 18 40 40v32c0 22-18 40-40 40h-16c-22 0-40-18-40-40v-32zm40-8c-4 0-8 4-8 8v32c0 4 4 8 8 8h16c4 0 8-4 8-8v-32c0-4-4-8-8-8h-16zM192 272h16c9 0 16 7 16 16v64h-32v-48c-9 0-16-7-16-16s7-16 16-16zm256 16v64h-32v-48c-9 0-16-7-16-16s7-16 16-16h16c9 0 16 7 16 16zm-80 24v40h-32v-40c0-4-4-8-8-8h-16c-4 0-8 4-8 8v40h-32v-40c0-22 18-40 40-40h16c22 0 40 18 40 40z"/>
</svg>