<svg xmlns="http://www.w3.org/2000/svg" aria-hidden="true" viewBox="0 0 512 512">
  <path d="M0 400c0 62 50 112 112 112h336c35 0 64-29 64-64v-96c0-35-29-64-64-64h-62l51-51c25-25 25-65 0-90l-72-72a64 64 0 0 0-90 0l-51 51V64c0-35-29-64-64-64H64C29 0 0 29 0 64v336zm448 64H210l128-128h110c9 0 16 7 16 16v96c0 9-7 16-16 16zm-45-261L224 382V194l85-85c6-6 16-6 22 0l72 72c6 6 6 16 0 22zM112 464c-35 0-64-29-64-64v-96h128v96c0 35-29 64-64 64zM48 256v-80h128v80H48zm0-128V64c0-9 7-16 16-16h96c9 0 16 7 16 16v64H48zm64 296a24 24 0 1 0 0-48 24 24 0 1 0 0 48z"/>
</svg>