<svg xmlns="http://www.w3.org/2000/svg" fill="none" viewBox="0 0 256 256">
  <rect width="256" height="256" fill="#00979C" rx="60"/>
  <path fill="#fff" fill-rule="evenodd" d="M19 137v-18c6-22 20-36 42-41l6-1h12c11 1 21 5 30 12 7 6 13 13 18 21h2l10-13c9-10 20-17 34-19l6-1h11l10 2c23 7 39 28 38 52-1 20-11 34-29 43-9 5-18 6-28 6-13 0-25-5-35-13-7-6-12-14-17-21h-2l-10 14a57 57 0 0 1-60 18c-17-5-29-16-36-33l-2-8Zm55 25c10 0 18-3 25-10 8-7 13-15 18-24v-1c-4-7-9-14-15-20a40 40 0 0 0-42-10c-13 4-21 13-23 27-2 13 3 23 14 31 7 5 14 7 23 7Zm109 0 11-2c14-4 23-12 25-26 3-14-3-25-14-33-13-9-32-8-45 2-9 6-15 15-21 24v1l16 22c7 8 16 12 28 12Z" clip-rule="evenodd"/>
  <path fill="#fff" fill-rule="evenodd" d="M74 123h16c2 0 2 0 2 2v4c0 2 0 2-2 2H57c-2 0-2 0-2-2v-5l2-1h17Zm108-11h4l1 1v7c0 1 0 2 2 2h7l1 1v8l-1 1h-8l-1 1v7l-1 2h-8l-1-1v-8l-1-1h-8l-1-1v-8l2-1h7l1-1v-8l1-1h4Z" clip-rule="evenodd"/>
</svg>