<svg xmlns="http://www.w3.org/2000/svg" fill="none" viewBox="0 0 256 256">
  <g clip-path="url(#clip0_382_469)">
    <path fill="#25344C" d="M196 0H60C27 0 0 27 0 60v136c0 33 27 60 60 60h136c33 0 60-27 60-60V60c0-33-27-60-60-60Z"/>
    <path fill="#F4F2ED" d="M45 90h17l26 74H71l-5-15H39l-5 15H18l27-74Zm-1 46h19l-10-29-9 29ZM109 141c0 4 2 6 3 8 2 3 7 4 13 4l9-1c4-1 7-4 7-9 0-2-2-4-4-5s-5-3-10-3l-8-2-17-5c-4-4-7-9-7-16s2-12 7-16c5-5 12-7 22-7 8 0 14 2 20 6 5 4 9 10 9 18h-15c-1-4-2-8-6-9l-9-2-10 2c-2 2-4 4-4 7s1 4 4 6l10 3 13 3c5 1 9 4 13 6 4 3 6 8 6 15s-2 13-7 17c-6 4-13 6-23 6s-17-2-23-6c-5-4-8-10-8-18h15v-2ZM216 90h22v74h-15v-62l-14 62h-15l-14-62v62h-15V90h22l16 58 13-58Z"/>
  </g>
  <defs>
    <clipPath id="clip0_382_469">
      <path fill="#fff" d="M0 0h256v256H0z"/>
    </clipPath>
  </defs>
</svg>