<svg xmlns="http://www.w3.org/2000/svg" fill="none" viewBox="0 0 256 256">
  <rect width="256" height="256" fill="#242938" rx="60"/>
  <path fill="#000" d="m207 91-2-1-1-1-1-2-1-1-2-1-1-1-1-2c12 13 20 30 20 47 0 42-43 76-95 76-29 0-56-11-73-27l1 1 1 1 2 1 1 2 1 1 2 1 1 2c17 17 44 28 74 28 52 0 95-34 95-76 0-18-8-34-21-48Z"/>
  <path fill="#FBF0DF" d="M212 129c0 39-40 70-89 70s-89-31-89-70c0-24 16-45 39-57 23-13 38-26 50-26s23 11 50 26c23 12 39 33 39 57Z"/>
  <path fill="#F6DECE" d="m212 129-2-15c-7 85-110 89-151 64 19 14 41 21 64 21 49 0 89-31 89-70Z"/>
  <path fill="#FFFEFC" d="M89 67c11-7 26-20 41-20l-7-1c-6 0-13 3-21 8l-9 6-20 12c-24 13-39 34-39 57v3c16-54 44-58 55-65Z"/>
  <path fill="#CCBEA7" fill-rule="evenodd" d="M116 53a42 42 0 0 1-15 31l1 2c9-4 20-13 15-33 0-2-1-1-1 0Zm5 0a41 41 0 0 1 4 34l2 1c5-7 10-21-4-37l-2 2Zm7-1a42 42 0 0 1 18 31 1 1 0 0 0 1-1c3-8 1-24-18-31-1-1-1 1-1 1ZM82 79a43 43 0 0 0 26-23h2c-5 21-19 25-28 24v-1Z" clip-rule="evenodd"/>
  <path fill="#000" d="M123 205c-52 0-95-34-95-76 0-25 16-49 42-63l20-12 9-5c9-5 16-9 24-9s14 3 22 8l8 5 23 13c26 14 42 38 42 63 0 42-43 76-95 76Zm0-159c-6 0-13 3-21 8l-9 6-20 12c-24 13-39 34-39 57 0 39 40 70 89 70s89-31 89-70c0-23-15-44-39-57l-23-14-8-5c-7-4-13-7-19-7Z"/>
  <path fill="#B71422" d="M141 148c-1 4-4 8-8 12-2 2-6 4-10 4s-7-2-10-4c-4-4-6-8-7-12a2 2 0 0 1 2-2h31a2 2 0 0 1 2 2Z"/>
  <path fill="#FF6164" d="m113 160 10 5 11-5 2-3a17 17 0 0 0-12-6 16 16 0 0 0-13 7l2 2Z"/>
  <path fill="#000" d="M113 158a14 14 0 0 1 11-6c4 1 7 2 10 5l2-2c-4-3-8-5-12-5a16 16 0 0 0-13 6l2 2Z"/>
  <path fill="#000" d="M123 166c-4-1-8-2-11-5-4-4-7-8-8-13a3 3 0 0 1 1-3 4 4 0 0 1 3-1h31a4 4 0 0 1 3 1 3 3 0 0 1 0 3c-1 5-4 9-8 13-3 3-7 4-11 5Zm-15-19h-1c1 5 4 8 7 11 2 3 6 4 9 5 4-1 7-2 9-5 4-2 6-6 7-11h-31Z"/>
  <path fill="#FEBBD0" d="M161 149c9 0 15-4 15-9 0-4-6-8-15-8-8 0-14 4-14 8 0 5 6 9 14 9ZM85 149c8 0 15-4 15-9 0-4-7-8-15-8s-15 4-15 8c0 5 7 9 15 9Z"/>
  <path fill="#000" fill-rule="evenodd" d="M92 137a14 14 0 1 0 0-28 14 14 0 0 0 0 28Zm63 0a14 14 0 1 0 0-28 14 14 0 0 0 0 28Z" clip-rule="evenodd"/>
  <path fill="#fff" fill-rule="evenodd" d="M87 124a5 5 0 1 0 1-11 5 5 0 0 0-1 11Zm63 0Z" clip-rule="evenodd"/>
</svg>