<svg xmlns="http://www.w3.org/2000/svg" fill="none" viewBox="0 0 256 256">
  <rect width="256" height="256" fill="#242938" rx="60"/>
  <g clip-path="url(#clip0_4_272)">
    <path fill="#fff" d="M79 172h132v-37l-25-14-4-2-103 1v52Z"/>
    <path fill="#F38020" d="M166 167c1-4 0-8-2-11s-5-4-9-4l-72-1-1-1v-1l2-2h72c9-1 18-8 22-16l4-11v-2a47 47 0 0 0-91-4c-4-4-9-5-15-5a21 21 0 0 0-19 27 30 30 0 0 0-29 35l2 1h133a2 2 0 0 0 2-2l1-3Z"/>
    <path fill="#FAAE40" d="M189 121h-4l-2 10c-2 4-1 8 1 11s5 4 9 4l15 1 1 1v1l-1 2-16 1c-9 0-18 7-22 15l-1 3 1 2h55a1 1 0 0 0 2-1l1-11a40 40 0 0 0-39-39"/>
  </g>
  <defs>
    <clipPath id="clip0_4_272">
      <path fill="#fff" d="M28 28h200v200H28z"/>
    </clipPath>
  </defs>
</svg>