<svg xmlns="http://www.w3.org/2000/svg" viewBox="0 0 256 256">
  <path fill="#639" d="M196 0H0v196c0 33 27 60 60 60h136c33 0 60-27 60-60V60c0-33-27-60-60-60Z"/>
  <path fill="#fff" d="M209 235c-8 0-15-2-19-7s-7-12-7-21h18c0 8 3 12 8 12l6-2c2-2 2-5 2-9l-2-7c-2-3-5-5-8-6l-6-3c-6-3-10-6-13-10s-4-9-4-16c0-8 2-14 7-19 4-5 11-7 19-7 7 0 13 2 18 7 4 4 6 11 6 20h-17l-1-8c-1-2-3-3-6-3-5 0-8 3-8 9l2 7 7 4 6 3c7 3 11 7 14 11 3 5 5 11 5 18 0 9-3 16-8 20-4 5-11 7-19 7Zm-58 0c-8 0-14-2-19-7-4-5-6-12-7-21h18c0 8 3 12 9 12l6-2 1-9c0-3 0-5-2-7-2-3-4-5-7-6l-7-3c-6-3-10-6-13-10-2-4-4-9-4-16 0-8 3-14 7-19 5-5 11-7 19-7s14 2 18 7c4 4 7 11 7 20h-17l-2-8c-1-2-3-3-6-3-5 0-7 3-7 9l1 7 7 4 6 3c7 3 12 7 14 11 3 5 5 11 5 18 0 9-3 16-7 20-5 5-11 7-20 7Zm-60 0c-8 0-14-2-19-6-5-5-7-11-7-20v-43c0-9 2-15 7-20 5-4 12-6 20-6s15 2 19 7c5 4 8 11 8 20v3h-19v-3c0-3-1-6-3-8l-5-2c-3 0-5 1-7 3-1 3-2 6-1 9v38c0 8 2 11 8 12l6-3 2-8v-3h19v3c0 6-2 11-4 15s-6 7-10 9c-4 3-9 4-14 3Z"/>
</svg>