<svg xmlns="http://www.w3.org/2000/svg" fill="none" viewBox="0 0 256 256">
  <path fill="#242938" d="M196 0H60C27 0 0 27 0 60v136c0 33 27 60 60 60h136c33 0 60-27 60-60V60c0-33-27-60-60-60Z"/>
  <path fill="#1AD1A5" d="M158 170H99c-16 0-29 13-29 30 0 16 13 30 29 30h59c16 0 29-14 29-30 0-17-13-30-29-30Z"/>
  <path fill="#000" fill-opacity=".2" d="M129 161c36 0 65-30 65-67 0-38-29-68-65-68-37 0-66 30-66 68 0 37 29 67 66 67Z"/>
  <path fill="#CCC" d="M128 153c33 0 59-27 59-60s-26-60-59-60-59 27-59 60 26 60 59 60Z"/>
  <path fill="#fff" d="M128 150c31 0 56-26 56-57s-25-57-56-57-56 26-56 57 25 57 56 57Z"/>
  <path fill="#FF9903" d="M128 120c15 0 26-12 26-27s-11-27-26-27c-14 0-26 12-26 27s12 27 26 27Z"/>
</svg>