<svg xmlns="http://www.w3.org/2000/svg" fill="none" viewBox="0 0 256 256">
  <rect width="256" height="256" fill="#242938" rx="60"/>
  <path fill="#fff" d="M128 30a100 100 0 0 0-32 195c5 1 7-2 7-5v-19c-28 7-34-11-34-11-4-12-11-15-11-15-9-6 1-6 1-6 10 1 15 10 15 10 9 16 24 11 29 9 1-7 4-11 7-14-22-2-46-11-46-49 0-11 4-20 10-27-1-3-4-13 1-27 0 0 9-2 28 11a96 96 0 0 1 50 0c19-13 28-11 28-11 5 14 2 24 1 27 6 7 10 16 10 27 0 38-24 47-46 49 4 3 7 9 7 19v27c0 3 2 6 7 5a100 100 0 0 0-32-195ZM65 172l-1 1-1-2h2v1Zm5 5-2-1v-2l2 1v2Zm4 5h-2v-3l2 1v2Zm5 7h-2l-1-3h3v3Zm8 2-3 1c-1 0-2-1-1-2l2-1 2 2Zm8 1-2 2-2-2 2-1 2 1Zm8 0c1 1 0 1-1 2l-3-1 2-2c1-1 2 0 2 1Z"/>
</svg>