<svg xmlns="http://www.w3.org/2000/svg" fill="none" viewBox="0 0 256 256">
  <path fill="#242938" d="M196 0H60C27 0 0 27 0 60v136c0 33 27 60 60 60h136c33 0 60-27 60-60V60c0-33-27-60-60-60Z"/>
  <g clip-path="url(#clip0_0_1)">
    <path fill="#fff" fill-rule="evenodd" d="M127 16a78 78 0 0 0-24 153c3 1 5-2 5-4v-14c-22 4-27-10-27-10-3-9-8-11-8-11-7-5 0-5 0-5 8 0 12 8 12 8 7 12 19 9 23 7 1-6 3-9 5-11-17-2-36-9-36-39 0-8 3-15 8-21 0-2-3-10 1-21 0 0 7-2 22 9a76 76 0 0 1 39 0c15-11 21-9 21-9 5 11 2 19 1 21 5 6 8 13 8 21 0 30-18 37-36 39 3 2 6 7 6 15v21c0 2 1 5 5 4a78 78 0 0 0-25-153Z" clip-rule="evenodd"/>
  </g>
  <path fill="#fff" d="m50 208-1-1a3 3 0 0 0-2-1h-4l-2 3v7l2 2 3 1 2-1 2-1v-2h1-5v-4h9v3l-1 5-3 3-5 1-6-1-4-4-1-6 1-5 2-3 4-2 4-1h3l3 2a8 8 0 0 1 3 5h-5Zm9 15v-16h6v16h-6Zm3-18-2-1-1-2 1-2h4l1 2-1 2-2 1Zm15 2v3H67v-3h10Zm-8-4h5v16h2a4 4 0 0 0 1 0v4a25 25 0 0 1-2 0h-3l-2-2-1-3v-15Zm16 11v9h-5v-22h5v9l2-3 3-1 3 1 2 2 1 4v10h-5v-9l-1-3h-3l-1 1-1 2Zm25 2v-9h5v16h-5v-3l-2 2-3 1-3-1-2-2-1-3v-10h5v9l1 2 2 1h1l1-1 1-2Zm8 7v-22h6v8l1-1 1-1 2-1a6 6 0 0 1 6 4l1 5-1 4-2 3a6 6 0 0 1-6 1 5 5 0 0 1-2-3v3h-6Zm5-8 1 2 1 2h3l1-2v-4l-1-2-2-1-1 1-1 2-1 2Zm16 8v-22h7l4 1 3 3v7l-3 2-4 1h-5v-2h5l3-1 1-2 1-2-1-2-1-2h-8v19h-2Zm23 0h-3l-2-2-1-3 1-2 1-1 3-1a25 25 0 0 1 4-1h2v-1l-1-2-2-1h-3l-2 2-2-1a6 6 0 0 1 4-3 10 10 0 0 1 4 0h2l2 2 1 3v11h-3v-2l-1 1-2 1h-2Zm0-2h3a4 4 0 0 0 2-4v-2h-1a12 12 0 0 1-2 1 78 78 0 0 0-3 0l-2 1v1l1 2 2 1Zm19 8h-3a7 7 0 0 1-4-3l2-1 1 1 1 1h3l3-1 1-3v-3l-1 1-1 1-3 1-3-1-3-3-1-4 1-5 3-3 3-1 3 1 1 1 1 1v-2h3v16l-1 4-3 2h-3Zm0-9h2l2-2v-6l-2-3h-5l-2 3v6l2 2h3Zm18 3-4-1c-1 0-2-1-2-3l-1-4 1-4c0-2 1-3 2-3l4-2 3 1a6 6 0 0 1 3 4l1 4v1h-13v-3h10v-2a4 4 0 0 0-4-2h-3l-1 2-1 3v1l1 3 2 2 2 1h2l1-1 1-1h3l-1 2-3 2h-3Zm22-13-2 1v-1l-2-1h-4l-1 2 1 2h2l2 1 4 2 1 2-1 3-2 2h-4l-4-1-2-3 3-1 1 2 2 1 3-1 1-1v-2l-2-1h-3l-3-2-1-3v-2l3-2 3-1 3 1 2 3Z"/>
  <defs>
    <clipPath id="clip0_0_1">
      <path fill="#fff" d="M49 16h157v153H49z"/>
    </clipPath>
  </defs>
</svg>