<svg xmlns="http://www.w3.org/2000/svg" fill="none" viewBox="0 0 256 256">
  <rect width="256" height="256" fill="#242938" rx="60"/>
  <path fill="#fff" d="M222 164v-2l-35 3c-3 0-5 3-5 5l-1 14-27 2-2-13c0-2-3-4-6-4h-36c-3 0-5 2-6 4l-2 13-27-2-1-14c0-2-2-5-5-5l-34-3-1 2v7l29 5 1 13c1 3 3 5 6 6l37 2c3 0 5-2 6-5l2-12h27l1 12a6 6 0 0 0 6 5l37-2c3-1 5-3 6-6l1-13 29-5v-7Z"/>
  <path fill="#478CBF" d="M34 108v56l35 3c2 0 3 2 4 3l1 16 30 2 2-14c0-2 2-3 4-3h36c2 0 4 1 4 3l2 14 31-2 1-16c0-1 1-3 3-3l35-3v-56l13-19c-5-9-12-17-19-24l-19 10-10-7-10-7 1-23c-9-5-18-8-28-10l-11 20-11-1-11 1-11-20c-10 2-19 5-28 10 0 8 0 15 2 23l-11 7-10 7-19-10c-7 7-14 15-19 24l13 19Z"/>
  <path fill="#478CBF" d="m191 174-1 15c0 2-2 4-4 4l-37 2c-2 0-3-1-4-3l-2-14h-30l-2 14c0 2-2 3-4 3l-37-2c-2 0-4-2-4-4l-1-15-31-3v8c0 32 42 48 94 48s94-16 94-48v-8l-31 3Z"/>
  <path fill="#fff" d="M100 130c0 12-10 21-21 21-12 0-21-9-21-21 0-11 9-20 21-20 11 0 21 9 21 20Z"/>
  <path fill="#414042" d="M95 132c0 7-7 13-14 13-8 0-14-6-14-13 0-8 6-14 14-14 7 0 14 6 14 14Z"/>
  <path fill="#fff" d="M128 153c-4 0-7-3-7-6v-19c0-3 3-6 7-6s7 3 7 6v19c0 3-3 6-7 6ZM156 130c0 12 10 21 21 21 12 0 21-9 21-21 0-11-9-20-21-20-11 0-21 9-21 20Z"/>
  <path fill="#414042" d="M161 132c0 7 7 13 14 13 8 0 14-6 14-13 0-8-6-14-14-14-7 0-14 6-14 14Z"/>
</svg>