<svg xmlns="http://www.w3.org/2000/svg" fill="none" viewBox="0 0 256 256">
  <rect width="256" height="256" fill="#00B4E0" rx="60"/>
  <path fill="#fff" d="M41 113h-1l2-3h37c1 0 1 0 0 0l-1 3H41ZM25 122l2-3h47s1 0 0 0v3H25ZM50 132l-1-1 2-2 1-1h20v3l-1 1H50ZM153 111l-16 5-3-1-5-4c-6-3-12-2-18 2-7 4-10 10-10 19 0 8 5 14 13 15 7 1 13-1 17-6l3-4h-19c-2 0-3-1-2-3l5-11 2-2h37l-1 9c-1 7-4 13-8 19-7 10-17 16-29 17-9 1-18 0-26-6s-12-13-13-23c-1-11 2-20 8-29 7-9 17-15 28-17 10-2 19-1 27 5 5 3 9 8 11 14 1 1 1 1-1 1Z"/>
  <path fill="#fff" d="M187 167c-10 0-18-3-25-9-6-5-9-12-11-19-1-12 2-22 8-31 8-9 17-14 28-16s20-1 29 5c8 5 13 13 14 22 2 14-2 25-11 34-7 7-15 11-24 13l-8 1Zm23-41v-3c-2-10-11-15-20-13-10 2-16 8-18 17-2 8 2 16 9 19 6 2 11 2 17-1 8-4 12-10 12-19Z"/>
</svg>