<svg xmlns="http://www.w3.org/2000/svg" viewBox="0 0 256 256">
  <rect width="256" height="256" fill="#242938" rx="60"/>
  <path fill="#fff" d="M102 183s-8 4 5 6c16 2 24 1 41-2l11 5c-39 17-88-1-57-9Zm-5-22s-9 6 4 8c17 1 31 2 54-3l8 5c-47 14-100 1-66-10Zm92 38s5 5-7 8c-22 7-93 9-113 0-7-3 6-7 10-8l7-1c-8-5-51 11-22 16 80 13 145-6 125-15Zm-84-61s-36 9-13 12h48l30-4-9 4c-37 10-108 6-87-4 17-9 31-8 31-8Zm65 37c38-20 20-38 8-36l-4 1s1-2 3-2c24-9 43 25-7 38v-1Zm-61 52c36 3 91-1 92-18 0 0-2 7-29 12-31 5-69 5-91 1 0 0 4 4 28 5Z"/>
  <path fill="#F58219" d="M148 28s20 21-20 53c-32 25-7 40 0 57-19-17-33-32-23-46 13-21 51-31 43-64Zm-11 96c10 11-3 21-3 21s25-13 14-29c-11-15-19-22 25-47 0 0-69 17-36 55Z"/>
</svg>