<svg xmlns="http://www.w3.org/2000/svg" fill="none" viewBox="0 0 256 256">
  <rect width="256" height="256" fill="#242938" rx="60"/>
  <path fill="#81CD39" d="M120 31c5-3 11-3 16 0l74 42c5 3 8 8 8 13v84c0 6-3 11-8 14l-74 41c-5 3-12 3-17 0l-22-13-4-3 4-2 9-4h2l19 11c1 1 3 0 4-1l72-41 2-2V87c0-2-1-3-2-3l-74-42h-2L53 84c-1 0-2 1-2 3v83l2 2 19 11c4 2 9 3 13 2 3-1 6-5 6-9V93l2-2h9c2 0 3 2 2 3v83c0 7-3 15-9 19-9 4-19 4-28-1l-21-11c-5-3-8-8-8-14V86c0-5 3-11 8-13l74-42Z"/>
  <path fill="#81CD39" d="M141 89c11 0 23 0 32 5 8 4 12 13 12 21l-2 2h-10c-1 0-2-1-2-3-1-4-3-8-7-9-6-3-12-3-19-3-4 0-9 1-13 3-3 2-4 6-3 10 1 2 4 3 6 4 13 3 27 3 40 7 5 2 10 5 12 11 2 7 1 16-4 22-4 5-11 8-17 9-8 2-16 2-25 1-8-1-16-3-22-8-5-5-8-12-7-19l2-1a462 462 0 0 1 12 2c0 4 2 8 5 10 6 4 14 4 22 4 6 0 12-1 17-5 3-2 4-6 3-9s-4-4-6-5c-13-4-27-2-39-7-6-2-11-5-13-11-2-7-1-16 5-22 5-6 14-8 21-9"/>
</svg>