<svg xmlns="http://www.w3.org/2000/svg" fill="none" viewBox="0 0 256 256">
  <g clip-path="url(#clip0_33_608)">
    <path fill="#242938" d="M196 0H60C27 0 0 27 0 60v136c0 33 27 60 60 60h136c33 0 60-27 60-60V60c0-33-27-60-60-60Z"/>
    <path fill="#F9AD00" d="M40 41h55v55H40zM100 41h55v55h-55zM160 41h55v55h-55zM160 101h55v55h-55z"/>
    <path fill="#4E4E4E" d="M160 161h55v55h-55zM100 161h55v55h-55zM40 161h55v55H40z"/>
    <path fill="#242938" d="M40 101h55v55H40z"/>
    <path fill="#4E4E4E" d="M100 101h55v55h-55z"/>
  </g>
  <defs>
    <clipPath id="clip0_33_608">
      <path fill="#fff" d="M0 0h256v256H0z"/>
    </clipPath>
  </defs>
</svg>