<svg xmlns="http://www.w3.org/2000/svg" viewBox="0 0 256 256">
  <rect width="256" height="256" fill="#242938" rx="60"/>
  <path fill="url(#a)" d="M127 29c-50 0-47 22-47 22v23h48v7H60s-32-4-32 47 28 50 28 50h17v-24s-1-28 28-28h48s27 0 27-27V56s4-27-49-27Zm-26 15a9 9 0 1 1 0 18 9 9 0 0 1 0-18Z"/>
  <path fill="url(#b)" d="M129 228c50 0 47-22 47-22v-23h-48v-7h68s32 4 32-47-28-50-28-50h-17v24s1 28-28 28h-48s-27 0-27 27v43s-4 27 49 27Zm26-15a9 9 0 1 1 0-18 9 9 0 0 1 0 18Z"/>
  <defs>
    <linearGradient id="a" x1="47.2" x2="146.3" y1="46.9" y2="145" gradientUnits="userSpaceOnUse">
      <stop stop-color="#387EB8"/>
      <stop offset="1" stop-color="#366994"/>
    </linearGradient>
    <linearGradient id="b" x1="108.1" x2="214.5" y1="109.9" y2="210.5" gradientUnits="userSpaceOnUse">
      <stop stop-color="#FFE052"/>
      <stop offset="1" stop-color="#FFC331"/>
    </linearGradient>
  </defs>
</svg>