<svg xmlns="http://www.w3.org/2000/svg" fill="none" viewBox="0 0 256 256">
  <rect width="256" height="256" fill="#242938" rx="60"/>
  <path fill="#00D8FF" d="M128 147a19 19 0 1 0 0-37 19 19 0 0 0 0 37Z"/>
  <path stroke="#00D8FF" stroke-width="8.9" d="M128 90c25 0 48 4 66 10 21 7 34 18 34 28 0 11-14 22-36 30-18 6-40 9-64 9s-47-3-65-9c-22-8-35-19-35-30 0-10 12-21 33-28 18-6 42-10 67-10Z" clip-rule="evenodd"/>
  <path stroke="#00D8FF" stroke-width="8.9" d="M95 109c12-21 27-40 41-52 17-14 33-20 42-15s12 23 7 46c-3 18-12 39-24 60s-26 39-40 51c-17 16-34 21-43 16s-12-21-8-43c4-18 12-41 25-63Z" clip-rule="evenodd"/>
  <path stroke="#00D8FF" stroke-width="8.9" d="M95 148c-13-22-21-44-25-62-4-22-1-39 8-44s26 1 44 17c13 12 27 30 39 50 12 21 21 43 25 61 4 23 1 40-8 45s-24 0-41-15c-14-12-29-31-42-52Z" clip-rule="evenodd"/>
</svg>