<svg xmlns="http://www.w3.org/2000/svg" fill="none" viewBox="0 0 256 256">
  <path fill="#242938" d="M196 0H60C27 0 0 27 0 60v136c0 33 27 60 60 60h136c33 0 60-27 60-60V60c0-33-27-60-60-60Z"/>
  <path fill="#CE422B" d="m226 126-9-6v-2l7-7a3 3 0 0 0-1-4l-9-4-1-2 6-8a3 3 0 0 0-2-5l-9-1-2-2 5-9a3 3 0 0 0-3-4h-10l-2-2 3-9a3 3 0 0 0-4-4l-9 3-2-2V48a3 3 0 0 0-4-3l-9 5-2-2-1-9-2-2h-3l-8 6-2-1-4-9a3 3 0 0 0-4-1l-7 7h-2l-6-9a3 3 0 0 0-4 0l-6 9h-2l-7-7a3 3 0 0 0-4 1l-4 9-2 1-8-6h-3l-2 2-1 9-2 2-9-5a3 3 0 0 0-4 3v10l-2 2-9-3a3 3 0 0 0-4 4l2 9-1 2H48a3 3 0 0 0-3 4l5 9-2 2-9 1-2 2v3l6 8-1 2-9 4a3 3 0 0 0-1 4l7 7v2l-9 6a3 3 0 0 0 0 4l9 6v2l-7 7a3 3 0 0 0 1 4l9 4 1 2-6 8a3 3 0 0 0 2 5l9 1 2 2-5 9a3 3 0 0 0 3 4h10l1 2-2 9 1 3 3 1 9-2 2 1v10a3 3 0 0 0 4 3l9-4 2 1 1 9 2 3 3-1 8-5h2l4 9a3 3 0 0 0 4 1l7-7h2l6 9a3 3 0 0 0 4 0l6-9h2l7 7a3 3 0 0 0 4-1l4-9h2l8 5a3 3 0 0 0 5-2l1-9 2-1 9 4a3 3 0 0 0 4-3v-10l2-1 9 2a3 3 0 0 0 4-4l-2-9 1-2h10l2-1 1-3-4-9 1-2 9-1 2-2v-3l-6-8 1-2 9-4a3 3 0 0 0 1-4l-7-7v-2l9-6a3 3 0 0 0 0-4Zm-56 69Zm-3-19c-3-1-6 1-6 4l-3 14a72 72 0 0 1-61-1l-2-14c-1-2-4-4-7-4l-12 3-6-7h59l1-1v-21l-1-1h-17v-13h18c2 0 9 0 12 10l3 15c1 4 6 10 11 10h30l-6 8-13-2Zm-82 18c-3 1-6-1-7-4a6 6 0 0 1 12-3c0 4-2 7-5 7Zm-22-91c1 3 0 7-3 8a6 6 0 1 1 3-8Zm-7 17 12-6c3-1 4-4 3-7l-2-6h10v46H58a73 73 0 0 1-2-27Zm55-5v-13h25c1 0 9 1 9 7 0 5-6 6-11 6h-23Zm89 13v5h-7l-1 1v4c0 8-5 9-9 10-4 0-8-2-8-4-3-13-6-15-12-20 7-5 15-11 15-21s-7-16-12-19c-6-4-13-5-15-5H74c10-12 24-20 40-23l9 10c2 2 6 2 8 0l10-10c21 4 39 17 50 36l-7 15c-1 3 0 6 2 7l14 6v8Zm-77-80c3-2 6-2 9 0 2 3 2 6-1 9-2 2-6 2-8 0-2-3-2-7 0-9Zm69 56c2-3 5-5 8-3a6 6 0 1 1-8 3Z"/>
</svg>