<svg xmlns="http://www.w3.org/2000/svg" fill="none" viewBox="0 0 256 256">
  <rect width="256" height="256" fill="#242938" rx="60"/>
  <path fill="#CCC" d="M216 168V75l-81-47v36l32 18v3l-38 22h-3L88 85v-3l32-18V28L39 75v93-1 1l31-18v-37c0-1 2-2 3-1l38 22 1 3v43l-2 2-32-19-31 18 81 47 80-47-31-18-31 19-3-2v-43l2-3 38-22c1-1 2 0 2 1v37l31 18Z"/>
  <path fill="#A6A6A6" d="m128 228 80-47-31-17-31 18c-2 0-3 0-3-2v-43c0-1 0-2 2-3l37-22c1 0 3 0 3 2v36l31 18V75l-88 51v102Z"/>
  <path fill="#fff" d="M135 28v36l32 18v3l-38 22h-3L88 85v-3l32-18V28L39 75l89 51 88-51-81-47Z"/>
  <path fill="#CCC" d="m109 182-31-19-31 18 80 47V126L39 75v93l31-18v-36c0-2 1-3 3-2l37 22 2 3v43c0 1-1 2-3 2Z"/>
</svg>