<!--
  Mukul's Personal Website is a Website 
  Copyright (C) 2024 Mukul Kedia

  Mukul's Personal Website is free software: you can redistribute it and/or modify
  it under the terms of the GNU Affero General Public License as published
  by the Free Software Foundation, either version 3 of the License, or
  (at your option) any later version.

  Mukul's Personal Website is distributed in the hope that it will be useful,
  but WITHOUT ANY WARRANTY; without even the implied warranty of
  MERCHANTABILITY or FITNESS FOR A PARTICULAR PURPOSE.  See the
  GNU Affero General Public License for more details.

  You should have received a copy of the GNU Affero General Public License
  along with Mukul's Personal Website. If not, see <https://www.gnu.org/licenses/>.
-->

<svg xmlns="http://www.w3.org/2000/svg" aria-hidden="true" fill="none" stroke="currentColor" viewBox="0 0 24 24">
  <path stroke-linecap="round" stroke-linejoin="round" stroke-width="2" d="M7 21a4 4 0 01-4-4V5a2 2 0 012-2h4a2 2 0 012 2v12a4 4 0 01-4 4zm0 0h12a2 2 0 002-2v-4a2 2 0 00-2-2h-2.343M11 7.343l1.657-1.657a2 2 0 012.828 0l2.829 2.829a2 2 0 010 2.828l-8.486 8.485M7 17h.01"></path>
</svg>